<svg xmlns="http://www.w3.org/2000/svg" viewBox="0 0 1333.2 367.55"><defs><style>.cls-1{fill:#1f1f2b;}.cls-2{fill:#e85b6d;}.cls-3{fill:#f49f2f;}</style></defs><title>logo</title><g id="Layer_2" data-name="Layer 2"><g id="Layer_1-2" data-name="Layer 1"><path class="cls-1" d="M282,224.75V252h-38.4v114.2h-34.4V252h-38v-27.2Z"/><path class="cls-1" d="M397.71,266.15Q409,279,409,301.35v64.8h-34.2v-60.8q0-11.19-5.9-17.5t-15.7-6.3q-10.4,0-16.5,6.6t-6.1,18.8v59.2h-34.2v-148h34.2V275a36.89,36.89,0,0,1,14.3-15.8q9.49-5.79,22.3-5.8Q386.41,253.35,397.71,266.15Z"/><path class="cls-1" d="M536.61,316.55h-77.4q.6,12.6,6.4,18.1t14.8,5.5q7.6,0,12.6-3.8a17.77,17.77,0,0,0,6.6-9.8h36.2a47.35,47.35,0,0,1-9.6,21.1,51.1,51.1,0,0,1-18.8,14.6,59.44,59.44,0,0,1-25.4,5.3q-16.39,0-29.1-6.9a49.26,49.26,0,0,1-19.9-19.9q-7.2-13-7.2-30.4,0-17.6,7.1-30.5a48.66,48.66,0,0,1,19.9-19.8q12.79-6.9,29.2-6.9,16.61,0,29.2,6.8a48.08,48.08,0,0,1,19.5,19.1q6.9,12.3,6.9,28.3A46.89,46.89,0,0,1,536.61,316.55Zm-39.5-30.9a21.75,21.75,0,0,0-15.1-5.5q-9.4,0-15.6,5.6t-7,16.4H503Q503.21,291.15,497.11,285.65Z"/><path class="cls-1" d="M606.11,259.35a42.1,42.1,0,0,1,21.9-6V290h-9.8q-13.61,0-21.1,5.8t-7.5,19.6v50.8h-34.2V254.55h34.2v21A48.41,48.41,0,0,1,606.11,259.35Z"/><path class="cls-1" d="M819.41,266.05q11.79,12.7,11.8,35.3v64.8h-34v-60.8q0-10.59-5.7-16.5T776,283q-10.2,0-16.1,6.3T754,307v59.2h-34.2v-60.8q0-10.59-5.6-16.5t-15.4-5.9q-10.2,0-16.2,6.2t-6,17.8v59.2h-34.2V254.55h34.2v19a33.3,33.3,0,0,1,13.5-14.8q9.09-5.4,21.3-5.4a43,43,0,0,1,22.6,5.9,37.17,37.17,0,0,1,14.8,16.9,44.68,44.68,0,0,1,15.9-16.6,41.8,41.8,0,0,1,22.3-6.2Q807.61,253.35,819.41,266.05Z"/><path class="cls-1" d="M918.41,259a35,35,0,0,1,13.6,15.8v-20.2h34v111.6H932V346a34.88,34.88,0,0,1-13.6,15.8q-9.21,5.81-22,5.8a45.18,45.18,0,0,1-24.7-6.9q-10.9-6.9-17.2-19.9t-6.3-30.4q0-17.6,6.3-30.5a47.3,47.3,0,0,1,17.2-19.8,45.18,45.18,0,0,1,24.7-6.9Q909.21,253.15,918.41,259Zm-28.7,31.4q-6.71,7.2-6.7,20t6.7,20q6.69,7.2,17.7,7.2,10.8,0,17.7-7.4t6.9-19.8q0-12.6-6.9-19.9t-17.7-7.3Q896.4,283.15,889.71,290.35Z"/><path class="cls-2" d="M1023.81,316.55v49.6h-34.2V224.75H1045q25.2,0,38.4,12.5t13.2,33.7a46.44,46.44,0,0,1-5.9,23.5,40.92,40.92,0,0,1-17.5,16.2q-11.61,5.91-28.2,5.9Zm38-45.6q0-18.6-20.6-18.6h-17.4v36.8h17.4Q1061.81,289.15,1061.81,271Z"/><path class="cls-2" d="M1195.3,260.05a50.59,50.59,0,0,1,20.6,19.9q7.5,13,7.5,30.4t-7.5,30.4a50.52,50.52,0,0,1-20.6,19.9q-13.1,6.9-29.7,6.9a63.37,63.37,0,0,1-29.8-6.9,50.41,50.41,0,0,1-20.7-19.9q-7.5-13-7.5-30.4t7.5-30.4a50.47,50.47,0,0,1,20.7-19.9,63.37,63.37,0,0,1,29.8-6.9Q1182.21,253.15,1195.3,260.05Zm-46.2,29.8q-6.69,7.11-6.7,20.5t6.7,20.4a21.94,21.94,0,0,0,16.5,7,21.6,21.6,0,0,0,16.4-7q6.6-7,6.6-20.4t-6.6-20.5a21.48,21.48,0,0,0-16.4-7.1A21.81,21.81,0,0,0,1149.1,289.85Z"/><path class="cls-2" d="M1275.4,218.15v148h-34.2v-148Z"/><path class="cls-2" d="M1333.2,218V366.15H1299V218Z"/><path class="cls-2" d="M34.2,204V366.15H0V204Z"/><path class="cls-2" d="M90.2,276v90.15H56V276Z"/><path class="cls-2" d="M147.2,243V366.15H113V243Z"/><path class="cls-3" d="M.38,184l18.55-30.1C43.53,107.34,56.38,60.48,56.38,7.82V0l65.71,92.23c27.55,38.67,37.34,77.24,26.91,123.56L147.38,223h-54L93,256H54.2l.18-72Z"/><path class="cls-2" d="M34.2,184h0A160.44,160.44,0,0,0,76.72,96.47L78.38,85l11.89,16.54a145.73,145.73,0,0,1,23.19,119.59L113,223H93.38v33h-40V184Z"/></g></g></svg>