<svg xmlns="http://www.w3.org/2000/svg" viewBox="0 0 1777 1777"><defs><style>.cls-1{fill:#f2f2f2;}.cls-1,.cls-7{stroke:#191e35;stroke-width:6px;}.cls-1,.cls-7,.cls-8{stroke-miterlimit:10;}.cls-2{fill:#ccc;}.cls-3{fill:#bababa;}.cls-4{opacity:0.91;}.cls-5{fill:#e85b6d;}.cls-6{fill:#f49f2f;}.cls-7,.cls-8{fill:none;}.cls-8{stroke:#3d3d3d;stroke-width:5px;}.cls-9{fill:#332929;}.cls-10{fill:#fff;}</style></defs><title>floor-plan_1</title><g id="Layer_2" data-name="Layer 2"><g id="Layer_2-2" data-name="Layer 2"><path id="Floor" class="cls-1" d="M164,3V1614H1774V884H1592V677l-187,1h0c-.55-168.06-136.94-304-305-304h-7l2-188-205-1L893,3Z"/><g id="Stairs"><path id="Stairs-2" data-name="Stairs" class="cls-2" d="M700.8,1614l.2,163s213-75,540-81v-82Z"/><path id="Blocks" class="cls-2" d="M165,539.76,0,540s82,346,82,535h83Z"/></g><g id="Blocks-2" data-name="Blocks"><path class="cls-3" d="M1093,374V592H791v96L903,808,752,960v63h431V683l222-5h0c0-167.89-136.11-304-304-304Z"/><polygon class="cls-3" points="164 502.59 257 503 257 893 164 893 164 502.59"/><polygon class="cls-3" points="969 1405 1043 1327 791 1072 714 1147 969 1405"/><polygon class="cls-3" points="380 807 453 733 721 1006 649 1081 380 807"/><polygon class="cls-3" points="1005 1216 1078 1291 1240 1129 1166 1057 1005 1216"/><polygon class="cls-3" points="890 185 884 440 1093 440 1093 185 890 185"/><polygon class="cls-3" points="700 550 1025 550 1025 440 752 436 700 482 700 550"/><polygon class="cls-3" points="486 698 564 774 707 628 631 550 486 698"/><polygon class="cls-3" points="666 747 759 655 905 805 812.92 898.67 666 747"/><polygon class="cls-3" points="1592 884 1439 884 1439 929 1289 1076 1240 1023 1234 980 1322 899 1321.48 679.88 1592 680 1592 884"/><polygon class="cls-3" points="293 577 293 839 424 708 293 577"/><polygon class="cls-3" points="314 359 270 315 306 278 289 260 359 196 417 257 314 359"/><polygon class="cls-3" points="401 184 444 227 485 189 443 142 401 184"/><polygon class="cls-3" points="381 345 443 283 549 387 485 453 381 345"/><polygon class="cls-3" points="471 253 512 210 562 259 582 242 694 355 675 380 716 424 674 462 471 253"/><polygon class="cls-3" points="527 462 574 413 645 486 601 532 527 462"/><polygon class="cls-3" points="317 1267 272 1311 310 1349 286 1371 348 1435 416 1366 317 1267"/><polygon class="cls-3" points="400 1435 439 1474 480 1432 440 1392 400 1435"/><polygon class="cls-3" points="448 1331 407 1289 444 1250 427 1232 495 1167 553 1225 448 1331"/><polygon class="cls-3" points="475 1360 673 1160 727 1213 681 1260 692 1271 597 1366 584 1353 525 1413 475 1360"/><polygon class="cls-3" points="538 1156 578 1199 648 1133 601 1089 538 1156"/><polygon class="cls-3" points="741 1519 741 1614 869.11 1614 866 1519 741 1519"/><polygon class="cls-3" points="912 1519 914.16 1614 1074.84 1614 1075 1541 1022 1542 1022 1519 912 1519"/><polygon class="cls-3" points="1252 1169 1292 1129 1502 1341 1459 1384 1403 1327 1387 1344 1273 1230 1293 1210 1252 1169"/><polygon class="cls-3" points="1320 1101 1362 1057 1431 1129 1386 1174 1320 1101"/><polygon class="cls-3" points="1413 1195 1480 1129 1597 1245 1529 1313 1413 1195"/><polygon class="cls-3" points="1526 1371 1631 1264 1675 1309 1640 1342 1653 1362 1586 1430 1526 1371"/><polygon class="cls-3" points="874 1085 969 1179 1063 1089 874 1085"/></g><g id="Highlights" class="cls-4"><g id="Zone_1" data-name="Zone 1"><polygon class="cls-5" points="183 213 230 166 284 219 236 267 183 213"/><polygon class="cls-5" points="188 101 233 55 339 161 294 210 188 101"/><polygon class="cls-5" points="270 70 317 23 397 105 351 153 270 70"/><polygon class="cls-5" points="196 359 244 313 298 368 247 413 196 359"/><polygon class="cls-5" points="391 72 443 23 489 67 436 119 391 72"/><polygon class="cls-5" points="455 124 560 17 607 63 500 171 455 124"/></g><g id="Zone_2" data-name="Zone 2"><polygon class="cls-6" points="277 477 323 431 377 483 327 532 277 477"/><polygon class="cls-6" points="333 419 381 374 434 428 388 472 333 419"/><polygon class="cls-6" points="434 453 354 532 404 577 481 500 434 453"/><polygon class="cls-6" points="463 547 509 499 534 526 490 574 463 547"/><polygon class="cls-6" points="410 610 458 565 511 617 463 665 410 610"/><polygon class="cls-6" points="499 582 527 608 573 561 544 536 499 582"/></g><g id="Zone_3" data-name="Zone 3"><polygon class="cls-6" points="546 174 591 129 673 208 625 256 546 174"/><polygon class="cls-6" points="604 116 648 72 729 150 682 197 604 116"/><polygon class="cls-6" points="687 86 733 40 787 94 740 140 687 86"/><polygon class="cls-6" points="645 274 690 228 772 306 726 354 645 274"/><polygon class="cls-6" points="703 217 748 171 829 250 782 297 703 217"/></g><g id="Zone_5" data-name="Zone 5"><polygon class="cls-6" points="177 1270 258 1190 306 1237 225 1316 177 1270"/><polygon class="cls-6" points="177 1380 230 1325 277 1372 224 1428 177 1380"/><polygon class="cls-6" points="180 1488 229 1537 310 1456 261 1409 180 1488"/><polygon class="cls-6" points="280 1543 386 1435 433 1482 328 1588 280 1543"/><polygon class="cls-6" points="387 1549 494 1443 541 1491 433 1597 387 1549"/><polygon class="cls-6" points="498 1553 551 1501 599 1548 545 1602 498 1553"/></g><g id="Zone_4" data-name="Zone 4"><polygon class="cls-5" points="232 1070 283 1018 330 1062 276 1119 232 1070"/><polygon class="cls-5" points="306 996 411 891 457 939 352 1043 306 996"/><polygon class="cls-5" points="361 1052 466 947 514 996 407 1102 361 1052"/><polygon class="cls-5" points="341 1075 288 1128 338 1176 388 1119 341 1075"/><polygon class="cls-5" points="344 1186 480 1054 524 1099 393 1231 344 1186"/><polygon class="cls-5" points="498 1030 524 1008 570 1054 543 1081 498 1030"/></g><g id="Zone_6" data-name="Zone 6"><polygon class="cls-5" points="578 1413 658 1331 706 1379 625 1460 578 1413"/><polygon class="cls-5" points="676 1313 754 1234 805 1283 722 1363 676 1313"/><polygon class="cls-5" points="706 1399 811 1291 860 1340 753 1447 706 1399"/><polygon class="cls-5" points="776 1443 827 1392 874 1437 822 1490 776 1443"/><polygon class="cls-5" points="869 1352 843 1380 890 1423 917 1395 869 1352"/></g><g id="Zone_8" data-name="Zone 8"><polygon class="cls-6" points="1033 1368 1059 1342 1105 1387 1080 1414 1033 1368"/><polygon class="cls-6" points="1063 1452 1118 1398 1163 1445 1110 1496 1063 1452"/><polygon class="cls-6" points="1123 1508 1175 1456 1223 1504 1166 1555 1123 1508"/></g><g id="Zone_9" data-name="Zone 9"><polygon class="cls-5" points="1115 1302 1163 1256 1243 1338 1196 1384 1115 1302"/><polygon class="cls-5" points="1173 1246 1220 1199 1248 1227 1199 1272 1173 1246"/><polygon class="cls-5" points="1227 1298 1272 1253 1301 1281 1252 1328 1227 1298"/><polygon class="cls-5" points="1223 1382 1301 1302 1348 1347 1271 1426 1223 1382"/><polygon class="cls-5" points="1269 1451 1312 1405 1364 1459 1320 1505 1269 1451"/><rect class="cls-5" x="1341.18" y="1362.94" width="63.64" height="72.12" transform="translate(-587.1 1380.62) rotate(-45)"/></g><g id="Zone_10" data-name="Zone 10"><polygon class="cls-6" points="1355 1542 1401 1495 1454 1551 1405 1591 1355 1542"/><polygon class="cls-6" points="1413 1484 1458 1438 1512 1493 1466 1540 1413 1484"/><polygon class="cls-6" points="1468 1426 1515 1381 1569 1434 1519 1481 1468 1426"/><polygon class="cls-6" points="1496 1565 1541 1522 1569 1551 1519 1597 1496 1565"/><polygon class="cls-6" points="1553 1511 1601 1466 1680 1545 1633 1591 1553 1511"/><polygon class="cls-6" points="1622 1442 1667 1395 1748 1476 1699 1522 1622 1442"/><polygon class="cls-6" points="1680 1384 1724 1338 1751 1364 1703 1412 1680 1384"/></g><g id="Zone_11" data-name="Zone 11"><polygon class="cls-5" points="1655 1231 1709 1181 1753 1228 1702 1281 1655 1231"/><polygon class="cls-5" points="1597 1174 1704 1072 1750 1115 1646 1221 1597 1174"/><polygon class="cls-5" points="1574 1174 1627 1124 1582 1080 1526 1133 1574 1174"/><polygon class="cls-5" points="1646 1104 1753 999 1707 956 1601 1057 1646 1104"/><polygon class="cls-5" points="1587 1047 1667 970 1621 925 1541 1004 1587 1047"/><polygon class="cls-5" points="1571 1067 1526 1023 1472 1076 1517 1120 1571 1067"/></g></g><path id="Floor-2" data-name="Floor" class="cls-7" d="M164,3V1614H1774V884H1592V677l-187,1h0c-.55-168.06-136.94-304-305-304h-7l2-188-205-1L893,3Z"/><polygon class="cls-8" points="187.5 392.5 182.5 22.5 655.5 16.5 241.5 439.5 187.5 392.5"/><polygon class="cls-8" points="680.5 22.5 772.5 32.5 850.5 256.5 737.5 382.5 531.5 171.5 680.5 22.5"/><polygon class="cls-8" points="257.5 481.5 471.5 679.5 596.5 550.5 368.5 358.5 257.5 481.5"/><polygon class="cls-8" points="406.5 867.5 599.5 1056.5 387.5 1255.5 196.5 1061.5 406.5 867.5"/><polygon class="cls-8" points="247.5 1159.5 623.5 1542.5 570 1614 163.5 1613.5 163.5 1190 247.5 1159.5"/><polygon class="cls-8" points="824.5 1511.5 947.5 1404.5 747.5 1210.5 552.5 1413.5 609.5 1488.5 700.5 1437.5 824.5 1511.5"/><polygon class="cls-8" points="1442.5 1066.5 1616.5 898.5 1731.5 925.5 1774 976 1774 1298.5 1703.5 1301.5 1442.5 1066.5"/><polygon class="cls-8" points="1078.5 1291.5 1301.5 1528.5 1449.5 1416.5 1240.5 1129.5 1078.5 1291.5"/><polygon class="cls-8" points="1015.5 1399.5 1015.5 1347 1063.5 1313.5 1248.5 1496.5 1210.5 1559.5 1141.5 1566.5 1015.5 1399.5"/><polygon class="cls-8" points="1325.5 1551.5 1393.56 1614 1774.5 1614.5 1774 1351 1704.5 1320.5 1592.5 1430.5 1512.5 1381.5 1325.5 1551.5"/><rect class="cls-9" x="238" y="121" width="232" height="53.66"/><path class="cls-10" d="M289.45,156.39l13.85-15.58H289.92v-6.47h23.95v5.56L300,155.49h13.84V162H289.45Z"/><path class="cls-10" d="M328.31,162.47a12.42,12.42,0,0,1-4.71-.87,11.62,11.62,0,0,1-3.73-2.38,10.83,10.83,0,0,1-3.31-7.84v-.07a10.75,10.75,0,0,1,.88-4.33,11.28,11.28,0,0,1,2.47-3.55,11.71,11.71,0,0,1,3.75-2.4,13,13,0,0,1,9.45,0,12,12,0,0,1,3.73,2.38,10.41,10.41,0,0,1,2.44,3.52,10.7,10.7,0,0,1,.87,4.3v.08a10.58,10.58,0,0,1-.89,4.32,11.09,11.09,0,0,1-2.46,3.55,11.71,11.71,0,0,1-3.75,2.4A12.46,12.46,0,0,1,328.31,162.47Zm.08-6.39a4.45,4.45,0,0,0,1.86-.37,4.12,4.12,0,0,0,1.4-1,4.64,4.64,0,0,0,.89-1.51,5.16,5.16,0,0,0,.31-1.8v-.07a5.05,5.05,0,0,0-.33-1.84,4.61,4.61,0,0,0-.95-1.51,4.83,4.83,0,0,0-1.44-1,4.22,4.22,0,0,0-1.82-.39,4.43,4.43,0,0,0-1.85.37,4.12,4.12,0,0,0-1.4,1,4.64,4.64,0,0,0-.89,1.51,5.16,5.16,0,0,0-.31,1.8v.08a5,5,0,0,0,.33,1.83,4.61,4.61,0,0,0,.95,1.51,4.83,4.83,0,0,0,1.44,1A4.2,4.2,0,0,0,328.39,156.08Z"/><path class="cls-10" d="M343.31,140.61h7.53v3a13.65,13.65,0,0,1,1.13-1.3,7.67,7.67,0,0,1,1.41-1.11,7.79,7.79,0,0,1,1.71-.76,6.77,6.77,0,0,1,2.07-.3,6.94,6.94,0,0,1,5.37,2.09,8.18,8.18,0,0,1,1.93,5.76v14h-7.54V150.4a3.88,3.88,0,0,0-.82-2.69,2.75,2.75,0,0,0-2.14-.9,3,3,0,0,0-2.24.9,3.75,3.75,0,0,0-.88,2.69V162h-7.53Z"/><path class="cls-10" d="M378.9,162.47a12.66,12.66,0,0,1-4.62-.81,10.92,10.92,0,0,1-3.61-2.25,10.09,10.09,0,0,1-2.37-3.49,11.88,11.88,0,0,1-.85-4.54v-.07a12,12,0,0,1,.79-4.36,10.9,10.9,0,0,1,2.23-3.56,10.46,10.46,0,0,1,3.42-2.38,10.61,10.61,0,0,1,4.34-.87,11.1,11.1,0,0,1,4.79,1,9.52,9.52,0,0,1,3.35,2.54,10.85,10.85,0,0,1,2,3.71,15.26,15.26,0,0,1,.65,4.48v.75c0,.26,0,.52,0,.79H374.68a4.36,4.36,0,0,0,1.63,2.64,5,5,0,0,0,3,.87,5.9,5.9,0,0,0,2.47-.51A8.28,8.28,0,0,0,384,154.7l4.14,3.43a11.09,11.09,0,0,1-9.27,4.34ZM382,149.53a4.73,4.73,0,0,0-1.18-2.82,3.31,3.31,0,0,0-2.52-1.05,3.15,3.15,0,0,0-2.45,1.05,5.58,5.58,0,0,0-1.26,2.82Z"/><path class="cls-10" d="M407.54,141.28l-4.65,1.07-1.46-5.92,8.08-2.29h5.57V162h-7.54Z"/><rect class="cls-9" x="317.55" y="494.44" width="232" height="53.66"/><path class="cls-10" d="M365,529.83l13.84-15.58H365.49v-6.48h23.95v5.57l-13.85,15.58h13.85v6.47H365Z"/><path class="cls-10" d="M403.88,535.91a12.51,12.51,0,0,1-4.72-.87,11.59,11.59,0,0,1-3.72-2.39,10.74,10.74,0,0,1-3.32-7.83v-.08a10.71,10.71,0,0,1,.89-4.32,10.86,10.86,0,0,1,2.47-3.55,11.8,11.8,0,0,1,3.74-2.41,12.46,12.46,0,0,1,4.74-.89,12.23,12.23,0,0,1,4.71.89,11.87,11.87,0,0,1,3.73,2.39,10.65,10.65,0,0,1,3.32,7.81v.08a10.67,10.67,0,0,1-.89,4.32,10.9,10.9,0,0,1-2.47,3.55,11.56,11.56,0,0,1-3.75,2.41A12.37,12.37,0,0,1,403.88,535.91Zm.08-6.4a4.43,4.43,0,0,0,1.85-.37,4,4,0,0,0,1.4-1,4.75,4.75,0,0,0,.89-1.51,5.21,5.21,0,0,0,.32-1.8v-.08a5.14,5.14,0,0,0-.34-1.84,4.65,4.65,0,0,0-.95-1.51,4.56,4.56,0,0,0-1.44-1,4.17,4.17,0,0,0-1.81-.39,4.48,4.48,0,0,0-1.86.37,4.12,4.12,0,0,0-1.4,1,4.68,4.68,0,0,0-.88,1.5,5.25,5.25,0,0,0-.32,1.8v.08a4.89,4.89,0,0,0,.34,1.84,4.53,4.53,0,0,0,.94,1.51,4.8,4.8,0,0,0,1.44,1A4.25,4.25,0,0,0,404,529.51Z"/><path class="cls-10" d="M418.87,514.05h7.54v3a13.56,13.56,0,0,1,1.13-1.31,7.23,7.23,0,0,1,1.4-1.1,7.69,7.69,0,0,1,1.72-.77,6.7,6.7,0,0,1,2.06-.3,7,7,0,0,1,5.38,2.1,8.18,8.18,0,0,1,1.92,5.76v14h-7.54V523.83a3.92,3.92,0,0,0-.81-2.68,2.78,2.78,0,0,0-2.15-.91,3,3,0,0,0-2.24.91,3.74,3.74,0,0,0-.87,2.68v11.56h-7.54Z"/><path class="cls-10" d="M454.46,535.91a12.74,12.74,0,0,1-4.62-.81,11,11,0,0,1-3.61-2.25,10,10,0,0,1-2.36-3.49,11.69,11.69,0,0,1-.85-4.54v-.08a11.89,11.89,0,0,1,.79-4.36,10.69,10.69,0,0,1,2.23-3.55,10.45,10.45,0,0,1,3.41-2.39,10.65,10.65,0,0,1,4.34-.87,11.24,11.24,0,0,1,4.79.95,9.37,9.37,0,0,1,3.36,2.55,10.58,10.58,0,0,1,2,3.71,15.19,15.19,0,0,1,.65,4.47V526a6.85,6.85,0,0,1,0,.79H450.24a4.37,4.37,0,0,0,1.64,2.65,5,5,0,0,0,3,.86,5.89,5.89,0,0,0,2.46-.51,7.75,7.75,0,0,0,2.27-1.66l4.14,3.44a11.52,11.52,0,0,1-3.8,3.15A11.72,11.72,0,0,1,454.46,535.91ZM457.54,523a4.74,4.74,0,0,0-1.19-2.82,3.31,3.31,0,0,0-2.52-1,3.17,3.17,0,0,0-2.45,1,5.58,5.58,0,0,0-1.26,2.82Z"/><path class="cls-10" d="M478,529.63l10.33-7.89a14.71,14.71,0,0,0,2.75-2.6,4,4,0,0,0,.8-2.37,2.6,2.6,0,0,0-.84-2,3.25,3.25,0,0,0-2.23-.75,4.57,4.57,0,0,0-2.63.85,15.79,15.79,0,0,0-2.86,2.7l-5.17-4.3a24.74,24.74,0,0,1,2.25-2.53,12.74,12.74,0,0,1,2.47-1.85,11.24,11.24,0,0,1,2.92-1.14,14.72,14.72,0,0,1,3.61-.4,12.58,12.58,0,0,1,4.12.65,10,10,0,0,1,3.22,1.8,8,8,0,0,1,2.09,2.78,8.46,8.46,0,0,1,.75,3.57v.08a9.66,9.66,0,0,1-.42,3,8.17,8.17,0,0,1-1.24,2.42,13,13,0,0,1-2,2.15c-.79.69-1.7,1.4-2.72,2.14l-4.74,3.31h11.4v6.23H478Z"/><rect class="cls-9" x="565.55" y="144.44" width="232" height="53.66"/><path class="cls-10" d="M613.07,179.83l13.85-15.58H613.55v-6.48h24v5.57l-13.85,15.58H637.5v6.47H613.07Z"/><path class="cls-10" d="M651.94,185.91a12.51,12.51,0,0,1-4.72-.87,11.59,11.59,0,0,1-3.72-2.39,10.74,10.74,0,0,1-3.32-7.83v-.08a10.71,10.71,0,0,1,.89-4.32,11,11,0,0,1,2.46-3.55,12,12,0,0,1,3.75-2.41,12.46,12.46,0,0,1,4.74-.89,12.23,12.23,0,0,1,4.71.89,11.87,11.87,0,0,1,3.73,2.39,10.65,10.65,0,0,1,3.32,7.81v.08a10.67,10.67,0,0,1-.89,4.32,10.9,10.9,0,0,1-2.47,3.55,11.56,11.56,0,0,1-3.75,2.41A12.37,12.37,0,0,1,651.94,185.91Zm.08-6.4a4.43,4.43,0,0,0,1.85-.37,4,4,0,0,0,1.4-1,4.75,4.75,0,0,0,.89-1.51,5.21,5.21,0,0,0,.32-1.8v-.08a5.14,5.14,0,0,0-.34-1.84,4.65,4.65,0,0,0-.95-1.51,4.56,4.56,0,0,0-1.44-1,4.17,4.17,0,0,0-1.81-.39,4.48,4.48,0,0,0-1.86.37,4.12,4.12,0,0,0-1.4,1,4.68,4.68,0,0,0-.88,1.5,5,5,0,0,0-.32,1.8v.08a4.89,4.89,0,0,0,.34,1.84,4.53,4.53,0,0,0,.94,1.51,4.8,4.8,0,0,0,1.44,1A4.22,4.22,0,0,0,652,179.51Z"/><path class="cls-10" d="M666.93,164.05h7.54v3a13.56,13.56,0,0,1,1.13-1.31,7.23,7.23,0,0,1,1.4-1.1,7.69,7.69,0,0,1,1.72-.77,6.7,6.7,0,0,1,2.06-.3,7,7,0,0,1,5.38,2.1,8.18,8.18,0,0,1,1.92,5.76v14h-7.54V173.83a3.92,3.92,0,0,0-.81-2.68,2.78,2.78,0,0,0-2.15-.91,3,3,0,0,0-2.24.91,3.74,3.74,0,0,0-.87,2.68v11.56h-7.54Z"/><path class="cls-10" d="M702.52,185.91a12.74,12.74,0,0,1-4.62-.81,11,11,0,0,1-3.61-2.25,10,10,0,0,1-2.36-3.49,11.69,11.69,0,0,1-.85-4.54v-.08a11.89,11.89,0,0,1,.79-4.36,10.69,10.69,0,0,1,2.23-3.55,10.45,10.45,0,0,1,3.41-2.39,10.61,10.61,0,0,1,4.34-.87,11.24,11.24,0,0,1,4.79,1,9.37,9.37,0,0,1,3.36,2.55,10.58,10.58,0,0,1,2,3.71,15.19,15.19,0,0,1,.65,4.47V176a6.85,6.85,0,0,1,0,.79H698.3a4.37,4.37,0,0,0,1.64,2.65,5,5,0,0,0,3,.86,5.89,5.89,0,0,0,2.46-.51,7.75,7.75,0,0,0,2.27-1.66l4.14,3.44a11.46,11.46,0,0,1-3.81,3.15A11.65,11.65,0,0,1,702.52,185.91ZM705.6,173a4.74,4.74,0,0,0-1.19-2.82,3.31,3.31,0,0,0-2.52-1,3.17,3.17,0,0,0-2.45,1,5.58,5.58,0,0,0-1.26,2.82Z"/><path class="cls-10" d="M737.2,186a16.15,16.15,0,0,1-6.88-1.33,14.82,14.82,0,0,1-4.88-3.57l4.82-4.81a12.68,12.68,0,0,0,3.09,2.33,7.53,7.53,0,0,0,3.5.83,4,4,0,0,0,2.6-.77,2.51,2.51,0,0,0,.95-2v-.07a2.36,2.36,0,0,0-1.17-2.1,6.23,6.23,0,0,0-3.33-.74h-3.24l-1.1-4,6.35-5.72H727.34v-6.2h20v5.49l-6.59,5.64a13.23,13.23,0,0,1,2.77.91,8,8,0,0,1,2.28,1.54,6.68,6.68,0,0,1,1.54,2.25,7.76,7.76,0,0,1,.55,3.07v.08a8.81,8.81,0,0,1-.8,3.79,8.7,8.7,0,0,1-2.23,2.9,10,10,0,0,1-3.38,1.85A13.13,13.13,0,0,1,737.2,186Z"/><rect class="cls-9" x="290.55" y="1014.44" width="232" height="53.66"/><path class="cls-10" d="M336.73,1049.83l13.85-15.58H337.21v-6.48h24v5.57l-13.85,15.58h13.85v6.47H336.73Z"/><path class="cls-10" d="M375.6,1055.91a12.51,12.51,0,0,1-4.72-.87,11.75,11.75,0,0,1-3.73-2.39,10.78,10.78,0,0,1-3.31-7.83v-.08a10.58,10.58,0,0,1,.89-4.32,11,11,0,0,1,2.46-3.55,11.73,11.73,0,0,1,3.75-2.41,12.46,12.46,0,0,1,4.74-.88,12.23,12.23,0,0,1,4.71.88,12,12,0,0,1,3.73,2.39,10.64,10.64,0,0,1,2.45,3.51,10.9,10.9,0,0,1,.86,4.3v.08a10.67,10.67,0,0,1-.88,4.32,11.06,11.06,0,0,1-2.47,3.55,11.56,11.56,0,0,1-3.75,2.41A12.41,12.41,0,0,1,375.6,1055.91Zm.08-6.4a4.43,4.43,0,0,0,1.85-.37,4,4,0,0,0,1.4-1,4.75,4.75,0,0,0,.89-1.51,5.2,5.2,0,0,0,.31-1.8v-.08a5.13,5.13,0,0,0-.33-1.84,4.65,4.65,0,0,0-.95-1.51,4.8,4.8,0,0,0-1.44-1,4.2,4.2,0,0,0-1.81-.39,4.45,4.45,0,0,0-1.86.37,4.12,4.12,0,0,0-1.4,1,4.7,4.7,0,0,0-.89,1.5,5.24,5.24,0,0,0-.31,1.8v.08a5.09,5.09,0,0,0,.33,1.84,4.72,4.72,0,0,0,.95,1.51,4.8,4.8,0,0,0,1.44,1A4.22,4.22,0,0,0,375.68,1049.51Z"/><path class="cls-10" d="M390.59,1034.05h7.54v3a11.3,11.3,0,0,1,1.13-1.3,6.91,6.91,0,0,1,1.4-1.11,7.82,7.82,0,0,1,1.71-.77,6.82,6.82,0,0,1,2.07-.29,6.9,6.9,0,0,1,5.37,2.09,8.14,8.14,0,0,1,1.93,5.76v14H404.2v-11.56a3.87,3.87,0,0,0-.82-2.68,2.76,2.76,0,0,0-2.14-.91,3,3,0,0,0-2.24.91,3.74,3.74,0,0,0-.87,2.68v11.56h-7.54Z"/><path class="cls-10" d="M426.18,1055.91a12.74,12.74,0,0,1-4.62-.81,10.92,10.92,0,0,1-3.61-2.25,10.18,10.18,0,0,1-2.37-3.49,11.88,11.88,0,0,1-.84-4.54v-.08a11.89,11.89,0,0,1,.79-4.36,10.66,10.66,0,0,1,2.22-3.55,10.49,10.49,0,0,1,3.42-2.39,10.61,10.61,0,0,1,4.34-.86,11.25,11.25,0,0,1,4.79.94,9.46,9.46,0,0,1,3.36,2.55,10.74,10.74,0,0,1,2,3.71,15.19,15.19,0,0,1,.65,4.47v.75a6.85,6.85,0,0,1,0,.79H422a4.41,4.41,0,0,0,1.63,2.65,5,5,0,0,0,3,.86,5.9,5.9,0,0,0,2.47-.51,7.89,7.89,0,0,0,2.27-1.66l4.14,3.44a11.16,11.16,0,0,1-9.27,4.34Zm3.08-13a4.8,4.8,0,0,0-1.19-2.82,3.34,3.34,0,0,0-2.52-1,3.17,3.17,0,0,0-2.45,1,5.58,5.58,0,0,0-1.26,2.82Z"/><path class="cls-10" d="M463.54,1050H450.17l-1.27-5.41,14.33-17H471v16.73h3.51V1050H471v5.36h-7.42Zm0-5.68v-7.93l-6.59,7.93Z"/><rect class="cls-9" x="226.55" y="1443.44" width="232" height="53.66"/><path class="cls-10" d="M273.9,1478.83l13.85-15.58H274.37v-6.48h23.95v5.57l-13.85,15.58h13.85v6.47H273.9Z"/><path class="cls-10" d="M312.76,1484.91a12.42,12.42,0,0,1-4.71-.87,11.53,11.53,0,0,1-3.73-2.39,10.82,10.82,0,0,1-2.45-3.53,10.7,10.7,0,0,1-.87-4.3v-.08a10.74,10.74,0,0,1,.89-4.32,10.86,10.86,0,0,1,2.47-3.55,11.8,11.8,0,0,1,3.74-2.41,12.46,12.46,0,0,1,4.74-.88,12.23,12.23,0,0,1,4.71.88,11.87,11.87,0,0,1,3.73,2.39,10.65,10.65,0,0,1,3.32,7.81v.08a10.87,10.87,0,0,1-3.36,7.87,11.63,11.63,0,0,1-3.74,2.41A12.46,12.46,0,0,1,312.76,1484.91Zm.08-6.4a4.43,4.43,0,0,0,1.85-.37,3.88,3.88,0,0,0,1.4-1,4.57,4.57,0,0,0,.89-1.51,5.21,5.21,0,0,0,.32-1.8v-.08a4.93,4.93,0,0,0-.34-1.84,4.54,4.54,0,0,0-2.38-2.54,4.25,4.25,0,0,0-1.82-.39,4.43,4.43,0,0,0-1.85.37,4,4,0,0,0-1.4,1,4.52,4.52,0,0,0-.89,1.5,5.25,5.25,0,0,0-.32,1.8v.08a4.89,4.89,0,0,0,.34,1.84,4.69,4.69,0,0,0,.94,1.51,4.8,4.8,0,0,0,1.44,1A4.25,4.25,0,0,0,312.84,1478.51Z"/><path class="cls-10" d="M327.75,1463.05h7.54v3a12.37,12.37,0,0,1,1.13-1.3,7.2,7.2,0,0,1,1.4-1.11,7.69,7.69,0,0,1,1.72-.77,6.71,6.71,0,0,1,2.06-.29,6.93,6.93,0,0,1,5.38,2.09,8.18,8.18,0,0,1,1.92,5.76v14h-7.53v-11.56a3.92,3.92,0,0,0-.82-2.68,2.77,2.77,0,0,0-2.14-.91,3,3,0,0,0-2.24.91,3.7,3.7,0,0,0-.88,2.68v11.56h-7.54Z"/><path class="cls-10" d="M363.34,1484.91a12.64,12.64,0,0,1-4.61-.81,10.82,10.82,0,0,1-3.61-2.25,9.91,9.91,0,0,1-2.37-3.49,11.69,11.69,0,0,1-.85-4.54v-.08a11.89,11.89,0,0,1,.79-4.36,10.85,10.85,0,0,1,2.23-3.55,10.41,10.41,0,0,1,7.75-3.25,11.33,11.33,0,0,1,4.8.94,9.42,9.42,0,0,1,3.35,2.55,10.58,10.58,0,0,1,2,3.71,14.87,14.87,0,0,1,.65,4.47v.75a6.85,6.85,0,0,1,0,.79H359.12a4.42,4.42,0,0,0,1.64,2.65,5,5,0,0,0,3,.86,5.89,5.89,0,0,0,2.46-.51,7.75,7.75,0,0,0,2.27-1.66l4.14,3.44a11.52,11.52,0,0,1-3.8,3.15A11.72,11.72,0,0,1,363.34,1484.91Zm3.08-13a4.79,4.79,0,0,0-1.18-2.82,3.35,3.35,0,0,0-2.53-1,3.15,3.15,0,0,0-2.44,1A5.5,5.5,0,0,0,359,1472Z"/><path class="cls-10" d="M397.51,1485a15.61,15.61,0,0,1-6.35-1.19,17.35,17.35,0,0,1-4.85-3.19l4.38-5.13a16.87,16.87,0,0,0,3.31,2.21,7.73,7.73,0,0,0,3.39.79,4.64,4.64,0,0,0,3-.87,2.89,2.89,0,0,0,1.09-2.37v-.08a2.79,2.79,0,0,0-1.13-2.35,4.79,4.79,0,0,0-2.94-.84,6.94,6.94,0,0,0-2.35.39,11.56,11.56,0,0,0-2.07,1l-4.53-2.53.79-14h18.46v6.32H395.26l-.24,4.18a12.16,12.16,0,0,1,2-.71,9.64,9.64,0,0,1,2.42-.28,11.78,11.78,0,0,1,3.57.54,8.64,8.64,0,0,1,3,1.59,7.66,7.66,0,0,1,2.09,2.73,8.9,8.9,0,0,1,.79,3.9v.08a9.75,9.75,0,0,1-.84,4.14,8.94,8.94,0,0,1-2.35,3.08,10.59,10.59,0,0,1-3.59,1.94A15.34,15.34,0,0,1,397.51,1485Z"/><rect class="cls-9" x="647.55" y="1347.44" width="232" height="53.66"/><path class="cls-10" d="M694.27,1382.83l13.84-15.58H694.74v-6.48h24v5.57l-13.85,15.58h13.85v6.47H694.27Z"/><path class="cls-10" d="M733.13,1388.91a12.51,12.51,0,0,1-4.72-.87,11.59,11.59,0,0,1-3.72-2.39,10.74,10.74,0,0,1-3.32-7.83v-.08a10.74,10.74,0,0,1,.89-4.32,10.86,10.86,0,0,1,2.47-3.55,11.8,11.8,0,0,1,3.74-2.41,12.46,12.46,0,0,1,4.74-.88,12.23,12.23,0,0,1,4.71.88,11.87,11.87,0,0,1,3.73,2.39,10.65,10.65,0,0,1,3.32,7.81v.08a10.67,10.67,0,0,1-.89,4.32,10.9,10.9,0,0,1-2.47,3.55,11.56,11.56,0,0,1-3.75,2.41A12.37,12.37,0,0,1,733.13,1388.91Zm.08-6.4a4.43,4.43,0,0,0,1.85-.37,3.88,3.88,0,0,0,1.4-1,4.75,4.75,0,0,0,.89-1.51,5.21,5.21,0,0,0,.32-1.8v-.08a5.14,5.14,0,0,0-.34-1.84,4.65,4.65,0,0,0-1-1.51,4.56,4.56,0,0,0-1.44-1,4.17,4.17,0,0,0-1.81-.39,4.43,4.43,0,0,0-1.85.37,4.16,4.16,0,0,0-1.41,1,4.68,4.68,0,0,0-.88,1.5,5.25,5.25,0,0,0-.32,1.8v.08a4.89,4.89,0,0,0,.34,1.84,4.69,4.69,0,0,0,.94,1.51,4.8,4.8,0,0,0,1.44,1A4.25,4.25,0,0,0,733.21,1382.51Z"/><path class="cls-10" d="M748.12,1367.05h7.54v3a12.37,12.37,0,0,1,1.13-1.3,6.91,6.91,0,0,1,1.4-1.11,7.69,7.69,0,0,1,1.72-.77,6.71,6.71,0,0,1,2.06-.29,6.94,6.94,0,0,1,5.38,2.09,8.18,8.18,0,0,1,1.92,5.76v14h-7.54v-11.56a3.92,3.92,0,0,0-.81-2.68,2.78,2.78,0,0,0-2.15-.91,3,3,0,0,0-2.24.91,3.74,3.74,0,0,0-.87,2.68v11.56h-7.54Z"/><path class="cls-10" d="M783.71,1388.91a12.64,12.64,0,0,1-4.61-.81,11,11,0,0,1-3.62-2.25,10,10,0,0,1-2.36-3.49,11.69,11.69,0,0,1-.85-4.54v-.08a11.89,11.89,0,0,1,.79-4.36,10.69,10.69,0,0,1,2.23-3.55,10.45,10.45,0,0,1,3.41-2.39,10.64,10.64,0,0,1,4.34-.86,11.25,11.25,0,0,1,4.79.94,9.37,9.37,0,0,1,3.36,2.55,10.58,10.58,0,0,1,2,3.71,14.87,14.87,0,0,1,.65,4.47v.75a6.85,6.85,0,0,1,0,.79H779.49a4.37,4.37,0,0,0,1.64,2.65,5,5,0,0,0,3,.86,5.89,5.89,0,0,0,2.46-.51,7.75,7.75,0,0,0,2.27-1.66l4.14,3.44a11.52,11.52,0,0,1-3.8,3.15A11.72,11.72,0,0,1,783.71,1388.91Zm3.08-13a4.79,4.79,0,0,0-1.18-2.82,3.35,3.35,0,0,0-2.53-1,3.19,3.19,0,0,0-2.45,1,5.58,5.58,0,0,0-1.26,2.82Z"/><path class="cls-10" d="M819.38,1389a13,13,0,0,1-5-.83,10.63,10.63,0,0,1-3.49-2.33,11.11,11.11,0,0,1-2.47-4,18.26,18.26,0,0,1-.93-6.34v-.08a22,22,0,0,1,.79-6,13.87,13.87,0,0,1,2.39-4.8,11.19,11.19,0,0,1,4-3.19,12.81,12.81,0,0,1,5.65-1.17,14.72,14.72,0,0,1,5,.78,15.7,15.7,0,0,1,4.14,2.28l-3.59,5.43a12.61,12.61,0,0,0-2.55-1.52,7.14,7.14,0,0,0-2.94-.58,4.37,4.37,0,0,0-3.69,1.63,8.3,8.3,0,0,0-1.51,4.21,14.34,14.34,0,0,1,2.5-1.48,8.23,8.23,0,0,1,3.45-.65,10.42,10.42,0,0,1,3.48.58,8.73,8.73,0,0,1,2.9,1.65,8.25,8.25,0,0,1,2,2.7,8.66,8.66,0,0,1,.75,3.67v.08a9.63,9.63,0,0,1-.87,4.17,9.31,9.31,0,0,1-2.35,3.11,10.31,10.31,0,0,1-3.49,2A13,13,0,0,1,819.38,1389Zm-.32-5.92a3.79,3.79,0,0,0,2.82-1,3.48,3.48,0,0,0,1-2.54v-.08a3.45,3.45,0,0,0-1-2.54,3.91,3.91,0,0,0-2.87-1,3.78,3.78,0,0,0-2.82,1,3.41,3.41,0,0,0-1,2.52v.08a3.52,3.52,0,0,0,1,2.56A3.86,3.86,0,0,0,819.06,1383Z"/><rect class="cls-9" x="970.55" y="1440.44" width="232" height="53.66"/><path class="cls-10" d="M1018.21,1475.83l13.85-15.58h-13.37v-6.48h24v5.57l-13.85,15.58h13.85v6.47h-24.43Z"/><path class="cls-10" d="M1057.08,1481.91a12.47,12.47,0,0,1-4.72-.87,11.64,11.64,0,0,1-3.73-2.39,10.78,10.78,0,0,1-3.31-7.83v-.08a10.58,10.58,0,0,1,.89-4.32,11,11,0,0,1,2.46-3.55,11.73,11.73,0,0,1,3.75-2.41,12.46,12.46,0,0,1,4.74-.88,12.23,12.23,0,0,1,4.71.88,12,12,0,0,1,3.73,2.39,10.47,10.47,0,0,1,2.44,3.51,10.73,10.73,0,0,1,.87,4.3v.08a10.67,10.67,0,0,1-.88,4.32,11.06,11.06,0,0,1-2.47,3.55,11.56,11.56,0,0,1-3.75,2.41A12.41,12.41,0,0,1,1057.08,1481.91Zm.08-6.4a4.43,4.43,0,0,0,1.85-.37,4,4,0,0,0,1.4-1,4.75,4.75,0,0,0,.89-1.51,5.2,5.2,0,0,0,.31-1.8v-.08a5.13,5.13,0,0,0-.33-1.84,4.61,4.61,0,0,0-2.39-2.54,4.2,4.2,0,0,0-1.81-.39,4.45,4.45,0,0,0-1.86.37,4.12,4.12,0,0,0-1.4,1,4.7,4.7,0,0,0-.89,1.5,5.24,5.24,0,0,0-.31,1.8v.08a5.09,5.09,0,0,0,.33,1.84,4.72,4.72,0,0,0,1,1.51,4.8,4.8,0,0,0,1.44,1A4.22,4.22,0,0,0,1057.16,1475.51Z"/><path class="cls-10" d="M1072.07,1460.05h7.54v3a11.3,11.3,0,0,1,1.13-1.3,6.91,6.91,0,0,1,1.4-1.11,7.82,7.82,0,0,1,1.71-.77,6.82,6.82,0,0,1,2.07-.29,6.9,6.9,0,0,1,5.37,2.09,8.14,8.14,0,0,1,1.93,5.76v14h-7.54v-11.56a3.87,3.87,0,0,0-.82-2.68,2.76,2.76,0,0,0-2.14-.91,3,3,0,0,0-2.24.91,3.74,3.74,0,0,0-.87,2.68v11.56h-7.54Z"/><path class="cls-10" d="M1107.66,1481.91a12.7,12.7,0,0,1-4.62-.81,10.92,10.92,0,0,1-3.61-2.25,10.18,10.18,0,0,1-2.37-3.49,11.88,11.88,0,0,1-.84-4.54v-.08a12.09,12.09,0,0,1,.78-4.36,10.85,10.85,0,0,1,2.23-3.55,10.49,10.49,0,0,1,3.42-2.39,10.61,10.61,0,0,1,4.34-.86,11.25,11.25,0,0,1,4.79.94,9.34,9.34,0,0,1,3.35,2.55,10.6,10.6,0,0,1,2,3.71,15.19,15.19,0,0,1,.65,4.47v.75a6.85,6.85,0,0,1,0,.79h-14.28a4.41,4.41,0,0,0,1.63,2.65,5,5,0,0,0,3,.86,5.9,5.9,0,0,0,2.47-.51,7.89,7.89,0,0,0,2.27-1.66l4.14,3.44a11.16,11.16,0,0,1-9.27,4.34Zm3.08-13a4.8,4.8,0,0,0-1.19-2.82,3.34,3.34,0,0,0-2.52-1,3.17,3.17,0,0,0-2.45,1,5.58,5.58,0,0,0-1.26,2.82Z"/><path class="cls-10" d="M1144.47,1460.17h-12.78v-6.4H1153v5.77l-12.19,21.85h-8.44Z"/><rect class="cls-9" x="1135.55" y="1294.44" width="232" height="53.66"/><path class="cls-10" d="M1182.9,1329.83l13.85-15.58h-13.38v-6.48h24v5.57l-13.85,15.58h13.85v6.47H1182.9Z"/><path class="cls-10" d="M1221.76,1335.91a12.42,12.42,0,0,1-4.71-.87,11.53,11.53,0,0,1-3.73-2.39,10.82,10.82,0,0,1-2.45-3.53,10.7,10.7,0,0,1-.87-4.3v-.08a10.74,10.74,0,0,1,.89-4.32,10.86,10.86,0,0,1,2.47-3.55,11.73,11.73,0,0,1,3.75-2.41,12.37,12.37,0,0,1,4.73-.88,12.23,12.23,0,0,1,4.71.88,11.87,11.87,0,0,1,3.73,2.39,10.65,10.65,0,0,1,3.32,7.81v.08a10.87,10.87,0,0,1-3.36,7.87,11.63,11.63,0,0,1-3.74,2.41A12.46,12.46,0,0,1,1221.76,1335.91Zm.08-6.4a4.43,4.43,0,0,0,1.85-.37,3.88,3.88,0,0,0,1.4-1,4.57,4.57,0,0,0,.89-1.51,5.21,5.21,0,0,0,.32-1.8v-.08a4.93,4.93,0,0,0-.34-1.84,4.54,4.54,0,0,0-2.38-2.54,4.25,4.25,0,0,0-1.82-.39,4.43,4.43,0,0,0-1.85.37,4,4,0,0,0-1.4,1,4.52,4.52,0,0,0-.89,1.5,5.25,5.25,0,0,0-.32,1.8v.08a4.89,4.89,0,0,0,.34,1.84,4.52,4.52,0,0,0,2.39,2.54A4.17,4.17,0,0,0,1221.84,1329.51Z"/><path class="cls-10" d="M1236.75,1314.05h7.54v3a12.37,12.37,0,0,1,1.13-1.3,7.2,7.2,0,0,1,1.4-1.11,7.69,7.69,0,0,1,1.72-.77,6.71,6.71,0,0,1,2.06-.29,6.93,6.93,0,0,1,5.38,2.09,8.18,8.18,0,0,1,1.92,5.76v14h-7.53v-11.56a3.92,3.92,0,0,0-.82-2.68,2.77,2.77,0,0,0-2.14-.91,3,3,0,0,0-2.24.91,3.7,3.7,0,0,0-.88,2.68v11.56h-7.54Z"/><path class="cls-10" d="M1272.34,1335.91a12.64,12.64,0,0,1-4.61-.81,10.82,10.82,0,0,1-3.61-2.25,9.91,9.91,0,0,1-2.37-3.49,11.69,11.69,0,0,1-.85-4.54v-.08a11.89,11.89,0,0,1,.79-4.36,10.69,10.69,0,0,1,2.23-3.55,10.41,10.41,0,0,1,7.75-3.25,11.33,11.33,0,0,1,4.8.94,9.42,9.42,0,0,1,3.35,2.55,10.58,10.58,0,0,1,2,3.71,14.87,14.87,0,0,1,.65,4.47v.75a6.85,6.85,0,0,1,0,.79h-14.28a4.42,4.42,0,0,0,1.64,2.65,5,5,0,0,0,3,.86,5.89,5.89,0,0,0,2.46-.51,7.75,7.75,0,0,0,2.27-1.66l4.15,3.44a11.16,11.16,0,0,1-9.28,4.34Zm3.08-13a4.79,4.79,0,0,0-1.18-2.82,3.35,3.35,0,0,0-2.53-1,3.15,3.15,0,0,0-2.44,1A5.5,5.5,0,0,0,1268,1323Z"/><path class="cls-10" d="M1307,1335.87a16.91,16.91,0,0,1-4.57-.59,11.67,11.67,0,0,1-3.59-1.66,8,8,0,0,1-2.35-2.55,6.43,6.43,0,0,1-.85-3.29v-.08a6.48,6.48,0,0,1,1.24-4.1,8.51,8.51,0,0,1,3.5-2.53,8.72,8.72,0,0,1-2.71-2.33,5.88,5.88,0,0,1-1.08-3.67V1315a6.36,6.36,0,0,1,.75-3.06,7.49,7.49,0,0,1,2.13-2.45,10.22,10.22,0,0,1,3.29-1.62,16.09,16.09,0,0,1,8.49,0,10.22,10.22,0,0,1,3.29,1.62,7.49,7.49,0,0,1,2.13,2.45,6.36,6.36,0,0,1,.75,3.06v.07a5.88,5.88,0,0,1-1.08,3.67,8.72,8.72,0,0,1-2.71,2.33,11.63,11.63,0,0,1,1.94,1.09,6.81,6.81,0,0,1,1.48,1.4,6.27,6.27,0,0,1,1,1.79,6.83,6.83,0,0,1,.36,2.31v.08a6.73,6.73,0,0,1-.85,3.35,8,8,0,0,1-2.35,2.57,11.19,11.19,0,0,1-3.59,1.63A16.94,16.94,0,0,1,1307,1335.87Zm0-5.72a4.25,4.25,0,0,0,3-.93,2.85,2.85,0,0,0,1-2.19V1327a2.6,2.6,0,0,0-1.1-2.17,5.43,5.43,0,0,0-5.77,0,2.6,2.6,0,0,0-1.1,2.17v.08a2.85,2.85,0,0,0,1,2.19A4.24,4.24,0,0,0,1307,1330.15Zm0-11.17a3.5,3.5,0,0,0,2.47-.85,2.77,2.77,0,0,0,.93-2.15v-.08a2.79,2.79,0,0,0-.91-2,3.95,3.95,0,0,0-5,0,2.69,2.69,0,0,0-.91,2v.08a2.84,2.84,0,0,0,.93,2.17A3.46,3.46,0,0,0,1307,1319Z"/><rect class="cls-9" x="1467.55" y="1489.44" width="232" height="53.66"/><path class="cls-10" d="M1514.27,1524.83l13.85-15.58h-13.38v-6.48h24v5.57l-13.85,15.58h13.85v6.47h-24.42Z"/><path class="cls-10" d="M1553.13,1530.91a12.51,12.51,0,0,1-4.72-.87,11.59,11.59,0,0,1-3.72-2.39,10.74,10.74,0,0,1-3.32-7.83v-.08a10.74,10.74,0,0,1,.89-4.32,10.86,10.86,0,0,1,2.47-3.55,11.8,11.8,0,0,1,3.74-2.41,12.46,12.46,0,0,1,4.74-.88,12.23,12.23,0,0,1,4.71.88,11.87,11.87,0,0,1,3.73,2.39,10.65,10.65,0,0,1,3.32,7.81v.08a10.67,10.67,0,0,1-.89,4.32,10.9,10.9,0,0,1-2.47,3.55,11.56,11.56,0,0,1-3.75,2.41A12.37,12.37,0,0,1,1553.13,1530.91Zm.08-6.4a4.43,4.43,0,0,0,1.85-.37,3.88,3.88,0,0,0,1.4-1,4.75,4.75,0,0,0,.89-1.51,5.21,5.21,0,0,0,.32-1.8v-.08a5.14,5.14,0,0,0-.34-1.84,4.65,4.65,0,0,0-.95-1.51,4.56,4.56,0,0,0-1.44-1,4.17,4.17,0,0,0-1.81-.39,4.43,4.43,0,0,0-1.85.37,4.16,4.16,0,0,0-1.41,1,4.68,4.68,0,0,0-.88,1.5,5.25,5.25,0,0,0-.32,1.8v.08a4.89,4.89,0,0,0,.34,1.84,4.53,4.53,0,0,0,.94,1.51,4.8,4.8,0,0,0,1.44,1A4.25,4.25,0,0,0,1553.21,1524.51Z"/><path class="cls-10" d="M1568.12,1509.05h7.54v3a12.37,12.37,0,0,1,1.13-1.3,6.91,6.91,0,0,1,1.4-1.11,7.69,7.69,0,0,1,1.72-.77,6.71,6.71,0,0,1,2.06-.29,6.94,6.94,0,0,1,5.38,2.09,8.18,8.18,0,0,1,1.92,5.76v14h-7.54v-11.56a3.92,3.92,0,0,0-.81-2.68,2.78,2.78,0,0,0-2.15-.91,3,3,0,0,0-2.23.91,3.7,3.7,0,0,0-.88,2.68v11.56h-7.54Z"/><path class="cls-10" d="M1603.71,1530.91a12.64,12.64,0,0,1-4.61-.81,11,11,0,0,1-3.62-2.25,10,10,0,0,1-2.36-3.49,11.69,11.69,0,0,1-.85-4.54v-.08a11.89,11.89,0,0,1,.79-4.36,10.69,10.69,0,0,1,2.23-3.55,10.45,10.45,0,0,1,3.41-2.39,10.64,10.64,0,0,1,4.34-.86,11.25,11.25,0,0,1,4.79.94,9.37,9.37,0,0,1,3.36,2.55,10.58,10.58,0,0,1,2,3.71,14.87,14.87,0,0,1,.65,4.47v.75a6.85,6.85,0,0,1,0,.79h-14.28a4.37,4.37,0,0,0,1.64,2.65,5,5,0,0,0,3,.86,5.89,5.89,0,0,0,2.46-.51,7.75,7.75,0,0,0,2.27-1.66l4.14,3.44a11.52,11.52,0,0,1-3.8,3.15A11.72,11.72,0,0,1,1603.71,1530.91Zm3.08-13a4.79,4.79,0,0,0-1.18-2.82,3.35,3.35,0,0,0-2.53-1,3.19,3.19,0,0,0-2.45,1,5.58,5.58,0,0,0-1.26,2.82Z"/><path class="cls-10" d="M1637.68,1531a14.9,14.9,0,0,1-5.4-.9,15.6,15.6,0,0,1-4.23-2.4l3.6-5.31a10,10,0,0,0,2.84,1.68,8.54,8.54,0,0,0,3.07.53,4.51,4.51,0,0,0,3.65-1.52,7.54,7.54,0,0,0,1.56-4.2,8,8,0,0,1-2.53,1.64,8.51,8.51,0,0,1-3.32.61,10.83,10.83,0,0,1-3.72-.61,8.76,8.76,0,0,1-3-1.74,7.75,7.75,0,0,1-1.94-2.74,9.18,9.18,0,0,1-.69-3.63v-.08a10.1,10.1,0,0,1,.83-4.14,9.27,9.27,0,0,1,2.31-3.18,10.41,10.41,0,0,1,3.49-2,13.15,13.15,0,0,1,4.38-.71,12.78,12.78,0,0,1,4.95.83,11.1,11.1,0,0,1,3.53,2.41,10.84,10.84,0,0,1,2.41,3.94,18.46,18.46,0,0,1,.91,6.28v.08a21.86,21.86,0,0,1-.83,6.19,13.61,13.61,0,0,1-2.43,4.79,10.88,10.88,0,0,1-4,3.1A12.89,12.89,0,0,1,1637.68,1531Zm1.32-15.35a3.83,3.83,0,0,0,2.86-1,3.52,3.52,0,0,0,1-2.56v-.08a3.69,3.69,0,0,0-1.07-2.7,3.92,3.92,0,0,0-2.89-1.07,3.83,3.83,0,0,0-2.86,1,3.66,3.66,0,0,0-1,2.68v.08a3.5,3.5,0,0,0,1.07,2.62A4,4,0,0,0,1639,1515.6Z"/><rect class="cls-9" x="1507.55" y="1038.44" width="232" height="53.66"/><path class="cls-10" d="M1544.6,1073.83l13.85-15.58h-13.38v-6.48h24v5.57l-13.85,15.58H1569v6.47H1544.6Z"/><path class="cls-10" d="M1583.46,1079.91a12.42,12.42,0,0,1-4.71-.87,11.53,11.53,0,0,1-3.73-2.39,10.82,10.82,0,0,1-2.45-3.53,10.69,10.69,0,0,1-.86-4.3v-.08a10.73,10.73,0,0,1,.88-4.32,11.17,11.17,0,0,1,2.47-3.55,11.73,11.73,0,0,1,3.75-2.41,13.13,13.13,0,0,1,9.45,0,12.11,12.11,0,0,1,3.73,2.39,10.61,10.61,0,0,1,2.44,3.51,10.73,10.73,0,0,1,.87,4.3v.08a10.67,10.67,0,0,1-.89,4.32,10.88,10.88,0,0,1-2.46,3.55,11.78,11.78,0,0,1-3.75,2.41A12.46,12.46,0,0,1,1583.46,1079.91Zm.08-6.4a4.48,4.48,0,0,0,1.86-.37,4,4,0,0,0,1.4-1,4.94,4.94,0,0,0,.89-1.51,5.45,5.45,0,0,0,.31-1.8v-.08a5.13,5.13,0,0,0-.33-1.84,5,5,0,0,0-1-1.51,4.8,4.8,0,0,0-1.44-1,4.22,4.22,0,0,0-1.82-.39,4.43,4.43,0,0,0-1.85.37,4.12,4.12,0,0,0-1.4,1,4.7,4.7,0,0,0-.89,1.5,5.25,5.25,0,0,0-.32,1.8v.08a5.1,5.1,0,0,0,.34,1.84,4.61,4.61,0,0,0,2.39,2.54A4.17,4.17,0,0,0,1583.54,1073.51Z"/><path class="cls-10" d="M1598.46,1058.05H1606v3a13.65,13.65,0,0,1,1.13-1.3,7,7,0,0,1,1.41-1.11,7.61,7.61,0,0,1,1.71-.77,6.71,6.71,0,0,1,2.06-.29,6.91,6.91,0,0,1,5.38,2.09,8.18,8.18,0,0,1,1.92,5.76v14h-7.53v-11.56a3.92,3.92,0,0,0-.82-2.68,2.76,2.76,0,0,0-2.14-.91,3,3,0,0,0-2.24.91,3.7,3.7,0,0,0-.88,2.68v11.56h-7.53Z"/><path class="cls-10" d="M1634,1079.91a12.64,12.64,0,0,1-4.61-.81,10.82,10.82,0,0,1-3.61-2.25,10.18,10.18,0,0,1-2.37-3.49,11.69,11.69,0,0,1-.85-4.54v-.08a12.1,12.1,0,0,1,.79-4.36,10.85,10.85,0,0,1,2.23-3.55,10.56,10.56,0,0,1,3.41-2.39,10.68,10.68,0,0,1,4.34-.86,11.33,11.33,0,0,1,4.8.94,9.42,9.42,0,0,1,3.35,2.55,10.58,10.58,0,0,1,2,3.71,14.87,14.87,0,0,1,.66,4.47v.75c0,.27,0,.53,0,.79h-14.29a4.42,4.42,0,0,0,1.64,2.65,5,5,0,0,0,3,.86,5.93,5.93,0,0,0,2.47-.51,7.72,7.72,0,0,0,2.26-1.66l4.15,3.44a11.16,11.16,0,0,1-9.28,4.34Zm3.08-13a4.73,4.73,0,0,0-1.18-2.82,3.35,3.35,0,0,0-2.53-1,3.15,3.15,0,0,0-2.44,1,5.58,5.58,0,0,0-1.26,2.82Z"/><path class="cls-10" d="M1662.69,1058.72l-4.66,1.06-1.46-5.91,8.09-2.29h5.56v27.81h-7.53Z"/><path class="cls-10" d="M1687.27,1080a12.29,12.29,0,0,1-5.33-1.13,11.67,11.67,0,0,1-4-3.08,14.29,14.29,0,0,1-2.53-4.55,17.09,17.09,0,0,1-.88-5.53v-.08a17,17,0,0,1,.9-5.54,14.23,14.23,0,0,1,2.57-4.58,12,12,0,0,1,9.35-4.24,12.17,12.17,0,0,1,5.31,1.13,12,12,0,0,1,4,3.07,14.11,14.11,0,0,1,2.55,4.56,17.07,17.07,0,0,1,.88,5.52v.08a17.25,17.25,0,0,1-.88,5.55,13.87,13.87,0,0,1-2.57,4.58,12.41,12.41,0,0,1-4,3.09A12.15,12.15,0,0,1,1687.27,1080Zm.08-6.79a4.06,4.06,0,0,0,2.09-.55,4.85,4.85,0,0,0,1.6-1.56,8,8,0,0,0,1-2.37,11.8,11.8,0,0,0,.36-3v-.08a11.53,11.53,0,0,0-.38-3,8,8,0,0,0-1-2.39,5.18,5.18,0,0,0-1.62-1.58,4.14,4.14,0,0,0-4.16,0,5.09,5.09,0,0,0-1.6,1.54,7.55,7.55,0,0,0-1,2.37,12.48,12.48,0,0,0-.35,3v.08a11.77,11.77,0,0,0,.37,3.06,8,8,0,0,0,1.05,2.41,5,5,0,0,0,1.62,1.56A4.06,4.06,0,0,0,1687.35,1073.16Z"/></g></g></svg>