<svg xmlns="http://www.w3.org/2000/svg" viewBox="0 0 1777 1777"><defs><style>.cls-1{fill:#f2f2f2;}.cls-1,.cls-7{stroke:#191e35;stroke-miterlimit:10;stroke-width:6px;}.cls-2{fill:#ccc;}.cls-3{fill:#bababa;}.cls-4{opacity:0.91;}.cls-5{fill:#e85b6d;}.cls-6{fill:#f49f2f;}.cls-7{fill:none;}</style></defs><title>floor-plan</title><g id="Layer_2" data-name="Layer 2"><g id="Layer_2-2" data-name="Layer 2"><path id="Floor" class="cls-1" d="M164,3V1614H1774V884H1592V677l-187,1h0c-.55-168.06-136.94-304-305-304h-7l2-188-205-1L893,3Z"/><g id="Stairs"><path id="Stairs-2" data-name="Stairs" class="cls-2" d="M700.8,1614l.2,163s213-75,540-81v-82Z"/><path id="Blocks" class="cls-2" d="M165,539.76,0,540s82,346,82,535h83Z"/></g><g id="Blocks-2" data-name="Blocks"><path class="cls-3" d="M1093,374V592H791v96L903,808,752,960v63h431V683l222-5h0c0-167.89-136.11-304-304-304Z"/><polygon class="cls-3" points="164 502.59 257 503 257 893 164 893 164 502.59"/><polygon class="cls-3" points="969 1405 1043 1327 791 1072 714 1147 969 1405"/><polygon class="cls-3" points="380 807 453 733 721 1006 649 1081 380 807"/><polygon class="cls-3" points="1005 1216 1078 1291 1240 1129 1166 1057 1005 1216"/><polygon class="cls-3" points="890 185 884 440 1093 440 1093 185 890 185"/><polygon class="cls-3" points="700 550 1025 550 1025 440 752 436 700 482 700 550"/><polygon class="cls-3" points="486 698 564 774 707 628 631 550 486 698"/><polygon class="cls-3" points="666 747 759 655 905 805 812.92 898.67 666 747"/><polygon class="cls-3" points="1592 884 1439 884 1439 929 1289 1076 1240 1023 1234 980 1322 899 1321.48 679.88 1592 680 1592 884"/><polygon class="cls-3" points="293 577 293 839 424 708 293 577"/><polygon class="cls-3" points="314 359 270 315 306 278 289 260 359 196 417 257 314 359"/><polygon class="cls-3" points="401 184 444 227 485 189 443 142 401 184"/><polygon class="cls-3" points="381 345 443 283 549 387 485 453 381 345"/><polygon class="cls-3" points="471 253 512 210 562 259 582 242 694 355 675 380 716 424 674 462 471 253"/><polygon class="cls-3" points="527 462 574 413 645 486 601 532 527 462"/><polygon class="cls-3" points="317 1267 272 1311 310 1349 286 1371 348 1435 416 1366 317 1267"/><polygon class="cls-3" points="400 1435 439 1474 480 1432 440 1392 400 1435"/><polygon class="cls-3" points="448 1331 407 1289 444 1250 427 1232 495 1167 553 1225 448 1331"/><polygon class="cls-3" points="475 1360 673 1160 727 1213 681 1260 692 1271 597 1366 584 1353 525 1413 475 1360"/><polygon class="cls-3" points="538 1156 578 1199 648 1133 601 1089 538 1156"/><polygon class="cls-3" points="741 1519 741 1614 869.11 1614 866 1519 741 1519"/><polygon class="cls-3" points="912 1519 914.16 1614 1074.84 1614 1075 1541 1022 1542 1022 1519 912 1519"/><polygon class="cls-3" points="1252 1169 1292 1129 1502 1341 1459 1384 1403 1327 1387 1344 1273 1230 1293 1210 1252 1169"/><polygon class="cls-3" points="1320 1101 1362 1057 1431 1129 1386 1174 1320 1101"/><polygon class="cls-3" points="1413 1195 1480 1129 1597 1245 1529 1313 1413 1195"/><polygon class="cls-3" points="1526 1371 1631 1264 1675 1309 1640 1342 1653 1362 1586 1430 1526 1371"/><polygon class="cls-3" points="874 1085 969 1179 1063 1089 874 1085"/></g><g id="Highlights" class="cls-4"><g id="Zone_1" data-name="Zone 1"><polygon class="cls-5" points="183 213 230 166 284 219 236 267 183 213"/><polygon class="cls-5" points="188 101 233 55 339 161 294 210 188 101"/><polygon class="cls-5" points="270 70 317 23 397 105 351 153 270 70"/><polygon class="cls-5" points="196 359 244 313 298 368 247 413 196 359"/><polygon class="cls-5" points="391 72 443 23 489 67 436 119 391 72"/><polygon class="cls-5" points="455 124 560 17 607 63 500 171 455 124"/></g><g id="Zone_2" data-name="Zone 2"><polygon class="cls-6" points="277 477 323 431 377 483 327 532 277 477"/><polygon class="cls-6" points="333 419 381 374 434 428 388 472 333 419"/><polygon class="cls-6" points="434 453 354 532 404 577 481 500 434 453"/><polygon class="cls-6" points="463 547 509 499 534 526 490 574 463 547"/><polygon class="cls-6" points="410 610 458 565 511 617 463 665 410 610"/><polygon class="cls-6" points="499 582 527 608 573 561 544 536 499 582"/></g><g id="Zone_3" data-name="Zone 3"><polygon class="cls-6" points="546 174 591 129 673 208 625 256 546 174"/><polygon class="cls-6" points="604 116 648 72 729 150 682 197 604 116"/><polygon class="cls-6" points="687 86 733 40 787 94 740 140 687 86"/><polygon class="cls-6" points="645 274 690 228 772 306 726 354 645 274"/><polygon class="cls-6" points="703 217 748 171 829 250 782 297 703 217"/></g><g id="Zone_5" data-name="Zone 5"><polygon class="cls-6" points="177 1270 258 1190 306 1237 225 1316 177 1270"/><polygon class="cls-6" points="177 1380 230 1325 277 1372 224 1428 177 1380"/><polygon class="cls-6" points="180 1488 229 1537 310 1456 261 1409 180 1488"/><polygon class="cls-6" points="280 1543 386 1435 433 1482 328 1588 280 1543"/><polygon class="cls-6" points="387 1549 494 1443 541 1491 433 1597 387 1549"/><polygon class="cls-6" points="498 1553 551 1501 599 1548 545 1602 498 1553"/></g><g id="Zone_4" data-name="Zone 4"><polygon class="cls-5" points="232 1070 283 1018 330 1062 276 1119 232 1070"/><polygon class="cls-5" points="306 996 411 891 457 939 352 1043 306 996"/><polygon class="cls-5" points="361 1052 466 947 514 996 407 1102 361 1052"/><polygon class="cls-5" points="341 1075 288 1128 338 1176 388 1119 341 1075"/><polygon class="cls-5" points="344 1186 480 1054 524 1099 393 1231 344 1186"/><polygon class="cls-5" points="498 1030 524 1008 570 1054 543 1081 498 1030"/></g><g id="Zone_6" data-name="Zone 6"><polygon class="cls-5" points="578 1413 658 1331 706 1379 625 1460 578 1413"/><polygon class="cls-5" points="676 1313 754 1234 805 1283 722 1363 676 1313"/><polygon class="cls-5" points="706 1399 811 1291 860 1340 753 1447 706 1399"/><polygon class="cls-5" points="776 1443 827 1392 874 1437 822 1490 776 1443"/><polygon class="cls-5" points="869 1352 843 1380 890 1423 917 1395 869 1352"/></g><g id="Zone_8" data-name="Zone 8"><polygon class="cls-6" points="1033 1368 1059 1342 1105 1387 1080 1414 1033 1368"/><polygon class="cls-6" points="1063 1452 1118 1398 1163 1445 1110 1496 1063 1452"/><polygon class="cls-6" points="1123 1508 1175 1456 1223 1504 1166 1555 1123 1508"/></g><g id="Zone_9" data-name="Zone 9"><polygon class="cls-5" points="1115 1302 1163 1256 1243 1338 1196 1384 1115 1302"/><polygon class="cls-5" points="1173 1246 1220 1199 1248 1227 1199 1272 1173 1246"/><polygon class="cls-5" points="1227 1298 1272 1253 1301 1281 1252 1328 1227 1298"/><polygon class="cls-5" points="1223 1382 1301 1302 1348 1347 1271 1426 1223 1382"/><polygon class="cls-5" points="1269 1451 1312 1405 1364 1459 1320 1505 1269 1451"/><rect class="cls-5" x="1341.18" y="1362.94" width="63.64" height="72.12" transform="translate(-587.1 1380.62) rotate(-45)"/></g><g id="Zone_10" data-name="Zone 10"><polygon class="cls-6" points="1355 1542 1401 1495 1454 1551 1405 1591 1355 1542"/><polygon class="cls-6" points="1413 1484 1458 1438 1512 1493 1466 1540 1413 1484"/><polygon class="cls-6" points="1468 1426 1515 1381 1569 1434 1519 1481 1468 1426"/><polygon class="cls-6" points="1496 1565 1541 1522 1569 1551 1519 1597 1496 1565"/><polygon class="cls-6" points="1553 1511 1601 1466 1680 1545 1633 1591 1553 1511"/><polygon class="cls-6" points="1622 1442 1667 1395 1748 1476 1699 1522 1622 1442"/><polygon class="cls-6" points="1680 1384 1724 1338 1751 1364 1703 1412 1680 1384"/></g><g id="Zone_11" data-name="Zone 11"><polygon class="cls-5" points="1655 1231 1709 1181 1753 1228 1702 1281 1655 1231"/><polygon class="cls-5" points="1597 1174 1704 1072 1750 1115 1646 1221 1597 1174"/><polygon class="cls-5" points="1574 1174 1627 1124 1582 1080 1526 1133 1574 1174"/><polygon class="cls-5" points="1646 1104 1753 999 1707 956 1601 1057 1646 1104"/><polygon class="cls-5" points="1587 1047 1667 970 1621 925 1541 1004 1587 1047"/><polygon class="cls-5" points="1571 1067 1526 1023 1472 1076 1517 1120 1571 1067"/></g></g><path id="Floor-2" data-name="Floor" class="cls-7" d="M164,3V1614H1774V884H1592V677l-187,1h0c-.55-168.06-136.94-304-305-304h-7l2-188-205-1L893,3Z"/></g></g></svg>