<svg xmlns="http://www.w3.org/2000/svg" viewBox="0 0 328.03 90.45"><defs><style>.cls-1{fill:#fff;}.cls-2{fill:#e85b6d;}.cls-3{fill:#f49f2f;}</style></defs><title>logo-white</title><g id="Layer_2" data-name="Layer 2"><g id="Screen_1" data-name="Screen 1"><g id="TOP_BAR" data-name="TOP BAR"><g id="Layer_2-2" data-name="Layer 2"><g id="Layer_1-2" data-name="Layer 1-2"><path class="cls-1" d="M69.38,55.3V62H59.94V90.1H51.47V62H42.12V55.31Z"/><path class="cls-1" d="M97.85,65.49c1.86,2.1,2.78,5,2.78,8.66V90.09H92.22v-15a6.1,6.1,0,0,0-1.45-4.31,5.07,5.07,0,0,0-3.87-1.55,5.28,5.28,0,0,0-4.06,1.63,6.55,6.55,0,0,0-1.5,4.62V90.09H72.93V53.67h8.41v14a9.1,9.1,0,0,1,3.52-3.88,10.35,10.35,0,0,1,5.49-1.43A9.45,9.45,0,0,1,97.85,65.49Z"/><path class="cls-1" d="M132,77.89H113a6.38,6.38,0,0,0,1.57,4.45,5.09,5.09,0,0,0,3.64,1.35,5,5,0,0,0,3.1-.93,4.42,4.42,0,0,0,1.63-2.41h8.9a11.54,11.54,0,0,1-2.36,5.19,12.68,12.68,0,0,1-4.62,3.59,14.52,14.52,0,0,1-6.25,1.3,14.77,14.77,0,0,1-7.16-1.69,12.1,12.1,0,0,1-4.9-4.9,16.82,16.82,0,0,1,0-15A12,12,0,0,1,111.41,64a16.2,16.2,0,0,1,14.37,0,11.81,11.81,0,0,1,4.8,4.7,14,14,0,0,1,1.7,7A11.6,11.6,0,0,1,132,77.89Zm-9.72-7.61a5.34,5.34,0,0,0-3.71-1.35,5.5,5.5,0,0,0-3.84,1.38,5.74,5.74,0,0,0-1.72,4h10.72A5.05,5.05,0,0,0,122.31,70.28Z"/><path class="cls-1" d="M149.13,63.81a10.43,10.43,0,0,1,5.39-1.47v9h-2.41a8.32,8.32,0,0,0-5.19,1.43q-1.84,1.43-1.85,4.82V90.1h-8.41V62.63h8.41V67.8A11.92,11.92,0,0,1,149.13,63.81Z"/><path class="cls-1" d="M201.61,65.46c1.94,2.08,2.9,5,2.91,8.69V90.09h-8.37v-15a5.62,5.62,0,0,0-1.4-4.06,5,5,0,0,0-3.82-1.44,5.18,5.18,0,0,0-4,1.55,6.12,6.12,0,0,0-1.45,4.36V90.1H177.1v-15a5.72,5.72,0,0,0-1.37-4.06,5,5,0,0,0-3.79-1.45,5.29,5.29,0,0,0-4,1.53,6,6,0,0,0-1.48,4.38V90.1h-8.41V62.63h8.41v4.68a8.23,8.23,0,0,1,3.33-3.65A10.1,10.1,0,0,1,175,62.34a10.56,10.56,0,0,1,5.56,1.45A9.15,9.15,0,0,1,184.24,68a11,11,0,0,1,3.91-4.09,11.3,11.3,0,0,1,13.46,1.6Z"/><path class="cls-1" d="M226,63.73a8.6,8.6,0,0,1,3.35,3.88v-5h8.36V90.1h-8.37v-5A8.55,8.55,0,0,1,226,89a10,10,0,0,1-5.41,1.43,11.16,11.16,0,0,1-6.08-1.7,11.59,11.59,0,0,1-4.23-4.9,16.85,16.85,0,0,1-1.55-7.48,16.82,16.82,0,0,1,1.55-7.5A11.61,11.61,0,0,1,214.48,64a11.16,11.16,0,0,1,6.08-1.7A9.78,9.78,0,0,1,226,63.73Zm-7.06,7.72a6.94,6.94,0,0,0-1.65,4.92,6.94,6.94,0,0,0,1.65,4.92,6.16,6.16,0,0,0,8.71-.05,7.85,7.85,0,0,0,0-9.76,5.72,5.72,0,0,0-4.36-1.8,5.63,5.63,0,0,0-4.35,1.76Z"/><path class="cls-2" d="M251.9,77.89v12.2h-8.41V55.3h13.63q6.19,0,9.45,3.07a10.91,10.91,0,0,1,3.24,8.3,11.37,11.37,0,0,1-1.45,5.78,10.08,10.08,0,0,1-4.3,4,15.17,15.17,0,0,1-6.94,1.46Zm9.35-11.22q0-4.58-5.06-4.58H251.9v9h4.29c3.37,0,5.06-1.48,5.06-4.46Z"/><path class="cls-2" d="M294.1,64a12.52,12.52,0,0,1,5.07,4.9,16.12,16.12,0,0,1,0,15,12.4,12.4,0,0,1-5.07,4.9,16.7,16.7,0,0,1-14.64,0,12.39,12.39,0,0,1-5.09-4.9,16,16,0,0,1,0-15,12.39,12.39,0,0,1,5.09-4.9,15.69,15.69,0,0,1,7.33-1.69A15.45,15.45,0,0,1,294.1,64Zm-11.37,7.34a7.05,7.05,0,0,0-1.65,5,7,7,0,0,0,1.65,5,5.38,5.38,0,0,0,4.06,1.72,5.3,5.3,0,0,0,4-1.72,7.06,7.06,0,0,0,1.62-5,7.13,7.13,0,0,0-1.62-5,5.3,5.3,0,0,0-4-1.75,5.36,5.36,0,0,0-4.06,1.75Z"/><path class="cls-2" d="M313.81,53.67V90.09h-8.42V53.67Z"/><path class="cls-2" d="M328,53.64V90.09h-8.42V53.64Z"/><path class="cls-2" d="M8.41,50.19v39.9H0V50.19Z"/><path class="cls-2" d="M22.19,67.91V90.09H13.78V67.91Z"/><path class="cls-2" d="M36.22,59.79v30.3H27.8V59.79Z"/><path class="cls-3" d="M.09,45.27l4.57-7.4A74.82,74.82,0,0,0,13.87,1.92V0L30,22.69c6.78,9.52,9.19,19,6.62,30.4l-.4,1.78H23L22.88,63H13.34l0-17.72Z"/><path class="cls-2" d="M8.41,45.27h0A39.48,39.48,0,0,0,18.88,23.74l.41-2.83L22.21,25a35.88,35.88,0,0,1,5.71,29.43l-.12.46H23V63H13.13V45.27Z"/></g></g></g></g></g></svg>