<svg xmlns="http://www.w3.org/2000/svg" viewBox="0 0 412.35 398.48"><defs><style>.cls-1{fill:#3b3a39;}</style></defs><title>map-icon</title><g id="Layer_2" data-name="Layer 2"><g id="Capa_1" data-name="Capa 1"><g id="Layer_5" data-name="Layer 5"><path class="cls-1" d="M126.19,348c0,4.44-3.86,9.44-8.57,11.12l-109,38.79c-4.71,1.67-8.57-.59-8.57-5V50.46C0,46,3.86,41,8.57,39.34L117.62.55c4.71-1.67,8.57.59,8.57,5Z"/><path class="cls-1" d="M269.27,392.91c0,4.43-3.86,6.69-8.57,5l-109-38.79c-4.71-1.68-8.57-6.69-8.57-11.12V5.57c0-4.43,3.86-6.69,8.57-5l109,38.79c4.71,1.68,8.57,6.69,8.57,11.12Z"/><path class="cls-1" d="M412.35,348c0,4.44-3.85,9.44-8.57,11.12l-109,38.79c-4.71,1.67-8.57-.59-8.57-5V50.46c0-4.43,3.85-9.44,8.57-11.12L403.78.55c4.72-1.67,8.57.59,8.57,5V348Z"/></g></g></g></svg>